<svg xmlns="http://www.w3.org/2000/svg" version="1.1" xmlns:xlink="http://www.w3.org/1999/xlink" xmlns:svgjs="http://svgjs.dev/svgjs" width="1000" height="1199" viewBox="0 0 1000 1199"><g transform="matrix(1,0,0,1,-0.37384460008320275,0.48632149681691317)"><svg viewBox="0 0 206 247" data-background-color="#ffffff" preserveAspectRatio="xMidYMid meet" height="1199" width="1000" xmlns="http://www.w3.org/2000/svg" xmlns:xlink="http://www.w3.org/1999/xlink"><g id="tight-bounds" transform="matrix(1,0,0,1,0.07701198761714068,-0.09997365579206985)"><svg viewBox="0 0 205.84579428571428 247.2" height="247.2" width="205.84579428571428"><g><svg viewBox="0 0 205.84579428571428 247.2" height="247.2" width="205.84579428571428"><g><svg viewBox="0 0 205.84579428571428 247.2" height="247.2" width="205.84579428571428"><g id="textblocktransform"><svg viewBox="0 0 205.84579428571428 247.2" height="247.2" width="205.84579428571428" id="textblock"><g><svg viewBox="0 0 205.84579428571428 247.2" height="247.2" width="205.84579428571428"><path d="M205.364 53.02C204.396 27.36 201.638 20.227 201.638 20.227 193.171-6.202 182.603-0.506 173.11 3.292 156.349 3.446 139.655 9.091 122.933 12.119 87.834 12.581 52.434 4.986 17.509 23.717 14.228 29.464-3.403 24.846 0.584 56.304 1.629 69.39 5.442 83.913 5.325 95.922 5.848 98.026 6.574 93.202 6.883 96.23 7.967 104.39 9.738 100.541 11.19 105.365 9.167 118.246 10.619 128.971 12.003 140.21 9.564 143.135 6.438 141.749 5.035 151.449 4.89 158.479 4.106 157.145 3.245 156.837 2.616 156.632 1.348 157.402 1.561 159.608 2.287 167.152-0.829 171.514 1.125 178.904-0.22 186.91 2.054 193.838 1.745 202.511 1.706 204.255 1.919 205.744 2.258 206.154 3.758 208.361 1.571 212.672 1.803 217.342 17.19 249.262 33.883 227.195 49.647 241.872 53.741 231.608 50.663 245.516 52.299 243.36 53.576 240.846 54.505 251.263 55.947 245.362 56.17 243.668 55.831 239.665 56.624 240.435 57.041 240.846 57.408 240.743 57.466 238.382 57.554 234.841 56.789 237.048 56.586 235.201 58.783 225.861 58.241 248.081 60.302 247.158 60.205 244.438 59.605 240.538 60.834 241.051 62.053 237.151 62.092 233.918 63.176 242.693 63.215 244.592 63.408 245.926 63.718 246.85 67.105 237.305 70.473 250.237 74.024 245.926 76.202 241.205 78.292 248.492 80.498 246.696 81.272 245.259 82.056 242.693 82.801 247.004 91.927 247.928 101.653 244.079 110.304 247.158 133.423 241.41 158.129 249.518 182.506 241.923 188.254 238.998 194.225 234.841 199.828 231.506 199.828 231.506 204.367 222.371 204.367 181.316S205.335 145.393 205.48 112.703C205.625 80.013 206.303 78.679 205.335 53.02Z" opacity="1" fill="#ee3e38" data-fill-palette-color="tertiary"></path><g transform="matrix(1,0,0,1,55.76832,26.230666666666668)"><svg width="94.30915428571427" viewBox="2.049999952316284 -35 16.950000762939453 35" height="194.73866666666666" data-palette-color="#ffffff"><path d="M2.05 0L2.05-35 10.2-35Q14.45-35 16.4-33.02 18.35-31.05 18.35-26.95L18.35-26.95 18.35-24.8Q18.35-19.35 14.75-17.9L14.75-17.9 14.75-17.8Q16.75-17.2 17.57-15.35 18.4-13.5 18.4-10.4L18.4-10.4 18.4-4.25Q18.4-2.75 18.5-1.83 18.6-0.9 19 0L19 0 13.4 0Q13.1-0.85 13-1.6 12.9-2.35 12.9-4.3L12.9-4.3 12.9-10.7Q12.9-13.1 12.13-14.05 11.35-15 9.45-15L9.45-15 7.55-15 7.55 0 2.05 0ZM7.55-20L9.55-20Q11.2-20 12.03-20.85 12.85-21.7 12.85-23.7L12.85-23.7 12.85-26.4Q12.85-28.3 12.18-29.15 11.5-30 10.05-30L10.05-30 7.55-30 7.55-20Z" opacity="1" transform="matrix(1,0,0,1,0,0)" fill="#ffffff" class="wordmark-text-0" data-fill-palette-color="quaternary" id="text-0"></path></svg></g></svg></g></svg></g></svg></g><g></g></svg></g><defs></defs></svg><rect width="205.84579428571428" height="247.2" fill="none" stroke="none" visibility="hidden"></rect></g></svg></g></svg>